<svg width="1024" height="1024" viewBox="0 0 1024 1024" xmlns="http://www.w3.org/2000/svg">
  <defs>
    <radialGradient id="bgGradient" cx="50%" cy="50%">
      <stop offset="0%" style="stop-color:#04e5b2;stop-opacity:1" />
      <stop offset="100%" style="stop-color:#03a07e;stop-opacity:1" />
    </radialGradient>
  </defs>

  <!-- Teal background circle -->
  <circle cx="512" cy="512" r="512" fill="url(#bgGradient)"/>

  <g transform="translate(512, 512)">
    <!-- Shield base -->
    <path d="M 0,-280 L 230,-200 L 270,-40 L 270,120 L 0,320 L -270,120 L -270,-40 L -230,-200 Z"
          fill="#2a2a2a" stroke="#1a1a1a" stroke-width="8"/>

    <!-- Helmet Red Left -->
    <path d="M 0,-220 L -90,-200 L -130,-160 L -150,-90 L -160,0 L -150,90 L -120,150 L -50,190 L 0,200 L 0,-220 Z"
          fill="#ed1c24" stroke="#1a1a1a" stroke-width="4"/>
    <path d="M -150,-50 L -180,-20 L -195,30 L -200,90 L -190,140 L -170,170 L -140,190 L -120,150 L -130,80 L -130,0 L -125,-50 Z"
          fill="#ed1c24" stroke="#1a1a1a" stroke-width="3"/>
    <path d="M -40,-220 L -50,-300 L -35,-330 L 0,-350 L 0,-220 Z"
          fill="#ed1c24" stroke="#1a1a1a" stroke-width="3"/>

    <!-- Helmet Black Right -->
    <path d="M 0,-220 L 90,-200 L 130,-160 L 150,-90 L 160,0 L 150,90 L 120,150 L 50,190 L 0,200 L 0,-220 Z"
          fill="#2a2a2a" stroke="#1a1a1a" stroke-width="4"/>
    <path d="M 150,-50 L 180,-20 L 195,30 L 200,90 L 190,140 L 170,170 L 140,190 L 120,150 L 130,80 L 130,0 L 125,-50 Z"
          fill="#2a2a2a" stroke="#1a1a1a" stroke-width="3"/>
    <path d="M 40,-220 L 50,-300 L 35,-330 L 0,-350 L 0,-220 Z"
          fill="#2a2a2a" stroke="#1a1a1a" stroke-width="3"/>

    <!-- T-visor white -->
    <rect x="-145" y="-60" width="290" height="38" rx="4" fill="#ffffff" stroke="#1a1a1a" stroke-width="3"/>
    <path d="M -30,-45 L -35,0 L -36,70 L -32,130 L -25,170 L -12,195 L 0,200 L 12,195 L 25,170 L 32,130 L 36,70 L 35,0 L 30,-45 Z"
          fill="#ffffff" stroke="#1a1a1a" stroke-width="3"/>

    <!-- Center line -->
    <rect x="-3" y="-350" width="6" height="550" fill="#ffffff" opacity="0.3"/>

    <!-- Decorative elements -->
    <path d="M -220,-150 L -185,-135 L -170,-150 L -205,-165 Z" fill="#ed1c24" stroke="#1a1a1a" stroke-width="2"/>
    <path d="M -240,-80 L -205,-65 L -190,-80 L -225,-95 Z" fill="#ed1c24" stroke="#1a1a1a" stroke-width="2"/>
    <path d="M -245,0 L -210,15 L -195,0 L -230,-15 Z" fill="#ed1c24" stroke="#1a1a1a" stroke-width="2"/>
    <path d="M -240,80 L -205,95 L -190,80 L -225,65 Z" fill="#ed1c24" stroke="#1a1a1a" stroke-width="2"/>

    <path d="M 220,-150 L 185,-135 L 170,-150 L 205,-165 Z" fill="#2a2a2a" stroke="#1a1a1a" stroke-width="2"/>
    <path d="M 240,-80 L 205,-65 L 190,-80 L 225,-95 Z" fill="#2a2a2a" stroke="#1a1a1a" stroke-width="2"/>
    <path d="M 245,0 L 210,15 L 195,0 L 230,-15 Z" fill="#2a2a2a" stroke="#1a1a1a" stroke-width="2"/>
    <path d="M 240,80 L 205,95 L 190,80 L 225,65 Z" fill="#2a2a2a" stroke="#1a1a1a" stroke-width="2"/>

    <path d="M -50,260 L 0,295 L 50,260 L 0,275 Z" fill="#2a2a2a" stroke="#1a1a1a" stroke-width="3"/>
  </g>
</svg>
