<svg width="1024" height="1024" viewBox="0 0 1024 1024" xmlns="http://www.w3.org/2000/svg">
  <defs>
    <!-- Background gradient -->
    <radialGradient id="bgGradient" cx="50%" cy="50%">
      <stop offset="0%" style="stop-color:#04e5b2;stop-opacity:1" />
      <stop offset="100%" style="stop-color:#03a07e;stop-opacity:1" />
    </radialGradient>
  </defs>

  <!-- Background Circle -->
  <circle cx="512" cy="512" r="512" fill="url(#bgGradient)"/>

  <g transform="translate(512, 512)">

    <!-- Shield base - geometric style -->
    <path d="M 0,-330 L 280,-230 L 320,-50 L 320,150 L 0,380 L -320,150 L -320,-50 L -280,-230 Z"
          fill="#1a2a3a" stroke="#0d1d29" stroke-width="10"/>

    <path d="M 0,-310 L 260,-220 L 295,-50 L 295,140 L 0,350 L -295,140 L -295,-50 L -260,-220 Z"
          fill="#ffffff" stroke="none"/>

    <!-- Spartan/Sallet Helmet - Split design like the reference -->

    <!-- LEFT SIDE - TEAL/GREEN (brand color) -->
    <g>
      <!-- Left helmet dome -->
      <path d="M 0,-250 L -100,-230 L -150,-180 L -180,-100 L -190,0 L -180,100 L -140,180 L -60,220 L 0,230 L 0,-250 Z"
            fill="#03ca9b" stroke="#0d1d29" stroke-width="5"/>

      <!-- Left cheek guard -->
      <path d="M -180,-60 L -210,-30 L -230,30 L -235,100 L -225,160 L -200,200 L -160,220 L -140,180 L -150,100 L -150,0 L -145,-60 Z"
            fill="#03ca9b" stroke="#0d1d29" stroke-width="4"/>

      <!-- Left crest -->
      <path d="M -50,-250 L -60,-360 L -40,-400 L 0,-420 L 0,-250 Z"
            fill="#03ca9b" stroke="#0d1d29" stroke-width="4"/>
    </g>

    <!-- RIGHT SIDE - DARK (black) -->
    <g>
      <!-- Right helmet dome -->
      <path d="M 0,-250 L 100,-230 L 150,-180 L 180,-100 L 190,0 L 180,100 L 140,180 L 60,220 L 0,230 L 0,-250 Z"
            fill="#1a2a3a" stroke="#0d1d29" stroke-width="5"/>

      <!-- Right cheek guard -->
      <path d="M 180,-60 L 210,-30 L 230,30 L 235,100 L 225,160 L 200,200 L 160,220 L 140,180 L 150,100 L 150,0 L 145,-60 Z"
            fill="#1a2a3a" stroke="#0d1d29" stroke-width="4"/>

      <!-- Right crest -->
      <path d="M 50,-250 L 60,-360 L 40,-400 L 0,-420 L 0,-250 Z"
            fill="#1a2a3a" stroke="#0d1d29" stroke-width="4"/>
    </g>

    <!-- Center vertical line highlight -->
    <rect x="-4" y="-420" width="8" height="650" fill="#ffffff" opacity="0.4"/>

    <!-- T-shaped visor opening -->
    <!-- Horizontal bar -->
    <rect x="-170" y="-70" width="340" height="45" rx="5" fill="#ffffff" stroke="#0d1d29" stroke-width="4"/>

    <!-- Vertical bar -->
    <path d="M -35,-50 L -40,0 L -42,80 L -38,150 L -30,200 L -15,225 L 0,230
             L 15,225 L 30,200 L 38,150 L 42,80 L 40,0 L 35,-50 Z"
          fill="#ffffff" stroke="#0d1d29" stroke-width="4"/>

    <!-- Decorative rivets/dots -->
    <circle cx="-130" cy="-130" r="10" fill="#0d1d29"/>
    <circle cx="-130" cy="0" r="10" fill="#0d1d29"/>
    <circle cx="-130" cy="130" r="10" fill="#0d1d29"/>

    <circle cx="130" cy="-130" r="10" fill="#0d1d29"/>
    <circle cx="130" cy="0" r="10" fill="#0d1d29"/>
    <circle cx="130" cy="130" r="10" fill="#0d1d29"/>

    <!-- Shield decorative elements - geometric angular design -->
    <!-- Left side accents -->
    <path d="M -260,-180 L -220,-160 L -200,-180 L -240,-200 Z"
          fill="#03ca9b" stroke="#0d1d29" stroke-width="3"/>
    <path d="M -280,-100 L -240,-80 L -220,-100 L -260,-120 Z"
          fill="#03ca9b" stroke="#0d1d29" stroke-width="3"/>
    <path d="M -290,0 L -250,20 L -230,0 L -270,-20 Z"
          fill="#03ca9b" stroke="#0d1d29" stroke-width="3"/>
    <path d="M -280,100 L -240,120 L -220,100 L -260,80 Z"
          fill="#03ca9b" stroke="#0d1d29" stroke-width="3"/>

    <!-- Right side accents -->
    <path d="M 260,-180 L 220,-160 L 200,-180 L 240,-200 Z"
          fill="#1a2a3a" stroke="#0d1d29" stroke-width="3"/>
    <path d="M 280,-100 L 240,-80 L 220,-100 L 260,-120 Z"
          fill="#1a2a3a" stroke="#0d1d29" stroke-width="3"/>
    <path d="M 290,0 L 250,20 L 230,0 L 270,-20 Z"
          fill="#1a2a3a" stroke="#0d1d29" stroke-width="3"/>
    <path d="M 280,100 L 240,120 L 220,100 L 260,80 Z"
          fill="#1a2a3a" stroke="#0d1d29" stroke-width="3"/>

    <!-- Bottom shield point -->
    <path d="M -60,300 L 0,340 L 60,300 L 0,320 Z"
          fill="#1a2a3a" stroke="#0d1d29" stroke-width="4"/>
  </g>
</svg>
