<svg width="1024" height="1024" viewBox="0 0 1024 1024" xmlns="http://www.w3.org/2000/svg">
  <defs>
    <!-- Background gradient - TOS teal/green -->
    <radialGradient id="bgGradient" cx="50%" cy="50%">
      <stop offset="0%" style="stop-color:#04e5b2;stop-opacity:1" />
      <stop offset="100%" style="stop-color:#03a07e;stop-opacity:1" />
    </radialGradient>

    <!-- Helmet metal gradient -->
    <linearGradient id="helmetMetal" x1="0%" y1="0%" x2="0%" y2="100%">
      <stop offset="0%" style="stop-color:#506070;stop-opacity:1" />
      <stop offset="30%" style="stop-color:#384858;stop-opacity:1" />
      <stop offset="70%" style="stop-color:#283848;stop-opacity:1" />
      <stop offset="100%" style="stop-color:#1a2a3a;stop-opacity:1" />
    </linearGradient>

    <!-- Shine gradient -->
    <linearGradient id="metalShine" x1="0%" y1="0%" x2="100%" y2="100%">
      <stop offset="0%" style="stop-color:#a0b0c0;stop-opacity:0.8" />
      <stop offset="50%" style="stop-color:#c0d0e0;stop-opacity:1" />
      <stop offset="100%" style="stop-color:#a0b0c0;stop-opacity:0.6" />
    </linearGradient>

    <!-- Shadow gradient -->
    <radialGradient id="shadowGrad" cx="50%" cy="50%">
      <stop offset="0%" style="stop-color:#000000;stop-opacity:0.3" />
      <stop offset="100%" style="stop-color:#000000;stop-opacity:0" />
    </radialGradient>
  </defs>

  <!-- Background Circle -->
  <circle cx="512" cy="512" r="512" fill="url(#bgGradient)"/>

  <!-- Shadow under helmet -->
  <ellipse cx="512" cy="720" rx="220" ry="40" fill="url(#shadowGrad)"/>

  <!-- Sallet Helmet -->
  <g transform="translate(512, 480)">

    <!-- Back neck guard (characteristic sallet feature) -->
    <path d="M -180,180 Q -220,240 -180,280 Q -160,260 -140,220 L -150,180 Z"
          fill="url(#helmetMetal)" stroke="#1a2530" stroke-width="3"/>
    <path d="M 180,180 Q 220,240 180,280 Q 160,260 140,220 L 150,180 Z"
          fill="url(#helmetMetal)" stroke="#1a2530" stroke-width="3"/>

    <!-- Main helmet dome -->
    <ellipse cx="0" cy="0" rx="240" ry="260"
             fill="url(#helmetMetal)"
             stroke="#1a2530" stroke-width="4"/>

    <!-- Helmet top crown -->
    <path d="M -220,-200 Q -180,-280 0,-300 Q 180,-280 220,-200
             Q 200,-100 180,0 Q 0,20 -180,0 Q -200,-100 -220,-200 Z"
          fill="url(#helmetMetal)" stroke="#1a2530" stroke-width="4"/>

    <!-- Metal shine on crown -->
    <ellipse cx="-60" cy="-200" rx="80" ry="50" fill="url(#metalShine)" opacity="0.3"
             transform="rotate(-20 -60 -200)"/>
    <ellipse cx="80" cy="-220" rx="60" ry="40" fill="url(#metalShine)" opacity="0.25"
             transform="rotate(15 80 -220)"/>

    <!-- Face opening (black visor area) -->
    <ellipse cx="0" cy="60" rx="140" ry="120" fill="#0a0a0a"/>
    <ellipse cx="0" cy="60" rx="140" ry="120" fill="none" stroke="#050505" stroke-width="4"/>

    <!-- Horizontal visor slit -->
    <rect x="-130" y="20" width="260" height="35" rx="17"
          fill="#0d1620" stroke="#050505" stroke-width="3"/>

    <!-- Inner slit detail -->
    <rect x="-125" y="25" width="250" height="25" rx="12"
          fill="#000000" opacity="0.8"/>

    <!-- Breathing holes (small slits below visor) -->
    <rect x="-90" y="100" width="50" height="8" rx="4" fill="#050505"/>
    <rect x="-30" y="105" width="60" height="8" rx="4" fill="#050505"/>
    <rect x="40" y="100" width="50" height="8" rx="4" fill="#050505"/>

    <!-- Center ridge for strength -->
    <path d="M 0,-295 Q 0,-280 0,160"
          fill="none" stroke="#506070" stroke-width="4" opacity="0.4"/>

    <!-- Brow ridge -->
    <path d="M -160,-10 Q 0,-25 160,-10"
          fill="none" stroke="#606070" stroke-width="5" stroke-linecap="round" opacity="0.5"/>

    <!-- Decorative rivets on sides -->
    <g opacity="0.8">
      <circle cx="-190" cy="-80" r="7" fill="#2a3a4a" stroke="#1a2530" stroke-width="2"/>
      <circle cx="-190" cy="0" r="7" fill="#2a3a4a" stroke="#1a2530" stroke-width="2"/>
      <circle cx="-190" cy="80" r="7" fill="#2a3a4a" stroke="#1a2530" stroke-width="2"/>

      <circle cx="190" cy="-80" r="7" fill="#2a3a4a" stroke="#1a2530" stroke-width="2"/>
      <circle cx="190" cy="0" r="7" fill="#2a3a4a" stroke="#1a2530" stroke-width="2"/>
      <circle cx="190" cy="80" r="7" fill="#2a3a4a" stroke="#1a2530" stroke-width="2"/>
    </g>

    <!-- Chin/jaw area -->
    <path d="M -140,160 Q -80,200 0,210 Q 80,200 140,160 L 120,140 Q 0,155 -120,140 Z"
          fill="url(#helmetMetal)" stroke="#1a2530" stroke-width="3"/>

    <!-- Highlight on left side -->
    <ellipse cx="-120" cy="20" rx="30" ry="80" fill="url(#metalShine)" opacity="0.15"/>

    <!-- Additional metal shine detail -->
    <path d="M -200,-150 Q -180,-100 -170,-50"
          fill="none" stroke="#708090" stroke-width="3" opacity="0.3" stroke-linecap="round"/>
  </g>
</svg>
